<!DOCTYPE svg PUBLIC "-//W3C//DTD SVG 1.1//EN" "http://www.w3.org/Graphics/SVG/1.1/DTD/svg11.dtd">

<!-- Uploaded to: SVG Repo, www.svgrepo.com, Transformed by: SVG Repo Mixer Tools -->
<svg fill="#f9d248" version="1.1" id="Capa_1"
	xmlns="http://www.w3.org/2000/svg"
	xmlns:xlink="http://www.w3.org/1999/xlink" viewBox="-51.2 -51.2 614.40 614.40" xml:space="preserve" stroke="#f9d248">

	<g id="SVGRepo_bgCarrier" stroke-width="0"/>

	<g id="SVGRepo_tracerCarrier" stroke-linecap="round" stroke-linejoin="round" stroke="#000000" stroke-width="50.624000000000002">
		<path d="M256,0C114.613,0,0,114.617,0,256c0,141.391,114.613,256,256,256s256-114.609,256-256C512,114.617,397.387,0,256,0z M256,384c-17.674,0-32-14.32-32-32c0-17.672,14.326-32,32-32s32,14.328,32,32C288,369.68,273.674,384,256,384z M288,272h-64 l-16-128c0-8.836,7.164-16,16-16h64c8.836,0,16,7.164,16,16L288,272z"/>
	</g>

	<g id="SVGRepo_iconCarrier">
		<path d="M256,0C114.613,0,0,114.617,0,256c0,141.391,114.613,256,256,256s256-114.609,256-256C512,114.617,397.387,0,256,0z M256,384c-17.674,0-32-14.32-32-32c0-17.672,14.326-32,32-32s32,14.328,32,32C288,369.68,273.674,384,256,384z M288,272h-64 l-16-128c0-8.836,7.164-16,16-16h64c8.836,0,16,7.164,16,16L288,272z"/>
	</g>

</svg>