<?xml version="1.0" encoding="iso-8859-1"?>
<!-- Uploaded to: SVG Repo, www.svgrepo.com, Generator: SVG Repo Mixer Tools -->
<svg version="1.1" id="Layer_1"
	xmlns="http://www.w3.org/2000/svg"
	xmlns:xlink="http://www.w3.org/1999/xlink" viewBox="0 0 512 512" xml:space="preserve">
	<rect x="22.924" y="10.199" style="fill:#F2F2F2;" />
	<polygon style="fill:#72BEDE;" points="453.889,48.956 436.295,98.932 471.483,98.932 "/>
	<polygon style="fill:#FFAD61;" points="436.295,98.932 418.702,148.908 418.702,463.044 489.076,463.044 489.076,148.908 
	471.483,98.932 "/>
	<g>
		<path style="fill:#534741;" d="M364.646,0H22.924c-5.632,0-10.199,4.566-10.199,10.199v491.602c0,5.633,4.567,10.199,10.199,10.199
		h341.723c5.632,0,10.199-4.566,10.199-10.199V10.199C374.845,4.566,370.279,0,364.646,0z M354.447,491.602H33.123V20.398h321.325
		v471.203H354.447z"/>
		<path style="fill:#534741;" d="M72.414,94.853h242.741c5.632,0,10.199-4.566,10.199-10.199s-4.567-10.199-10.199-10.199H72.414
		c-5.632,0-10.199,4.566-10.199,10.199S66.782,94.853,72.414,94.853z"/>
		<path style="fill:#534741;" d="M72.414,147.888h242.741c5.632,0,10.199-4.566,10.199-10.199c0-5.633-4.567-10.199-10.199-10.199
		H72.414c-5.632,0-10.199,4.566-10.199,10.199C62.215,143.322,66.782,147.888,72.414,147.888z"/>
		<path style="fill:#534741;" d="M72.414,200.924h242.741c5.632,0,10.199-4.566,10.199-10.199c0-5.633-4.567-10.199-10.199-10.199
		H72.414c-5.632,0-10.199,4.566-10.199,10.199C62.215,196.358,66.782,200.924,72.414,200.924z"/>
		<path style="fill:#534741;" d="M72.414,376.351h242.741c5.632,0,10.199-4.566,10.199-10.199s-4.567-10.199-10.199-10.199H72.414
		c-5.632,0-10.199,4.566-10.199,10.199S66.782,376.351,72.414,376.351z"/>
		<path style="fill:#534741;" d="M315.155,408.988h-8.645c-5.632,0-10.199,4.566-10.199,10.199s4.567,10.199,10.199,10.199h8.645
		c5.632,0,10.199-4.566,10.199-10.199S320.787,408.988,315.155,408.988z"/>
		<path style="fill:#534741;" d="M72.414,429.386h192.279c5.632,0,10.199-4.566,10.199-10.199s-4.567-10.199-10.199-10.199H72.414
		c-5.632,0-10.199,4.566-10.199,10.199S66.782,429.386,72.414,429.386z"/>
		<path style="fill:#534741;" d="M463.51,45.569c-1.437-4.082-5.292-6.812-9.621-6.812c-4.329,0-8.183,2.73-9.621,6.812
		l-35.187,99.952c-0.383,1.088-0.578,2.234-0.578,3.387v314.135c0,5.633,4.567,10.199,10.199,10.199h70.375
		c5.632,0,10.199-4.566,10.199-10.199V148.908c0-1.154-0.195-2.299-0.578-3.387L463.51,45.569z M453.889,79.671l3.19,9.062h-6.381
		L453.889,79.671z M478.877,452.845h-49.976V160.128h26.518c5.632,0,10.199-4.566,10.199-10.199c0-5.633-4.567-10.199-10.199-10.199
		h-22.673l10.771-30.598h20.743l14.616,41.52V452.845z"/>
	</g>
</svg>