<?xml version="1.0" encoding="iso-8859-1"?>
<!-- Uploaded to: SVG Repo, www.svgrepo.com, Generator: SVG Repo Mixer Tools -->
<svg version="1.1" id="Layer_1"
	xmlns="http://www.w3.org/2000/svg"
	xmlns:xlink="http://www.w3.org/1999/xlink" viewBox="0 0 512 512" xml:space="preserve">
	<path style="fill:#792A18;" d="M478.242,71.455h-67.517l33.758,360.088h33.758c18.644,0,33.758-15.115,33.758-33.758V105.213
	C512,86.57,496.885,71.455,478.242,71.455z"/>
	<path style="fill:#95341D;" d="M210.989,70.33L256,464.176c18.645,0,33.758-15.114,33.758-33.758h154.725V70.33H210.989z"/>
	<path style="fill:#AB5D4A;" d="M33.758,70.33C15.115,70.33,0,85.444,0,104.088v292.571c0,18.644,15.115,33.758,33.758,33.758
	h188.484c0,18.645,15.114,33.758,33.758,33.758V70.33H33.758z"/>
	<polygon style="fill:#A99E9B;" points="421.978,340.396 433.231,396.659 478.242,396.659 478.242,362.901 "/>
	<path style="fill:#C1B8B5;" d="M233.495,340.396L256,422.537v7.88c0-18.567,15.191-33.758,33.758-33.758h141.785v-56.264H233.495z" />
	<path style="fill:#D8D1D0;" d="M33.758,362.901v33.758h188.484c18.567,0,33.758,15.191,33.758,33.758V329.143L33.758,362.901z"/>
	<polygon style="fill:#E26142;" points="391.066,475.429 417.775,464.176 444.484,475.429 444.484,340.396 391.066,340.396 "/>
	<polygon style="fill:#C1B8B5;" points="433.231,36.571 399.473,199.736 433.231,362.901 478.242,362.901 478.242,36.571 "/>
	<path style="fill:#D8D1D0;" d="M289.758,36.571C271.191,36.571,256,51.763,256,70.33l-33.758,163.165L256,388.782v7.877
	c0-18.567,15.191-33.758,33.758-33.758h143.473V247.557l-22.506-71.734l22.506-71.735V36.571H289.758z"/>
	<path style="fill:#F0EBEA;" d="M222.242,36.571H33.758v326.33h188.484c18.567,0,33.758,15.191,33.758,33.758V70.33
	C256,51.763,240.809,36.571,222.242,36.571z"/>
	<rect x="301.011" y="104.088" style="fill:#FFFFFF;" />
	<g>
		<path style="fill:#7F7774;" d="M210.989,303.824H78.769c-4.662,0-8.44-3.778-8.44-8.44c0-4.662,3.778-8.44,8.44-8.44h132.22
		c4.662,0,8.44,3.778,8.44,8.44C219.429,300.047,215.651,303.824,210.989,303.824z"/>
		<path style="fill:#7F7774;" d="M210.989,256H78.769c-4.662,0-8.44-3.778-8.44-8.44s3.778-8.44,8.44-8.44h132.22
		c4.662,0,8.44,3.778,8.44,8.44S215.651,256,210.989,256z"/>
		<path style="fill:#7F7774;" d="M210.989,208.176H78.769c-4.662,0-8.44-3.778-8.44-8.44s3.778-8.44,8.44-8.44h132.22
		c4.662,0,8.44,3.778,8.44,8.44S215.651,208.176,210.989,208.176z"/>
		<path style="fill:#7F7774;" d="M210.989,160.352H78.769c-4.662,0-8.44-3.778-8.44-8.44s3.778-8.44,8.44-8.44h132.22
		c4.662,0,8.44,3.778,8.44,8.44S215.651,160.352,210.989,160.352z"/>
		<path style="fill:#7F7774;" d="M210.989,112.527H78.769c-4.662,0-8.44-3.778-8.44-8.44c0-4.662,3.778-8.44,8.44-8.44h132.22
		c4.662,0,8.44,3.778,8.44,8.44C219.429,108.75,215.651,112.527,210.989,112.527z"/>
	</g>
	<path style="fill:#554F4E;" d="M433.231,303.824h-132.22c-4.662,0-8.44-3.778-8.44-8.44c0-4.662,3.778-8.44,8.44-8.44h132.22
	c4.662,0,8.44,3.778,8.44,8.44C441.67,300.047,437.893,303.824,433.231,303.824z"/>
</svg>