<svg width="13" height="14" viewBox="0 0 13 14" fill="none"
	xmlns="http://www.w3.org/2000/svg">
	<path d="M5.15001 4.97424e-05C4.21026 -0.015152 3.29369 0.292192 2.55308 0.870853C1.81247 1.44951 1.29256 2.26453 1.08001 3.18005C0.957975 3.76269 0.967524 4.36523 1.10796 4.94371C1.2484 5.5222 1.51618 6.06204 1.89178 6.52388C2.26738 6.98571 2.74133 7.35789 3.27905 7.61327C3.81678 7.86865 4.40472 8.00079 5.00001 8.00005V14H7.00001V2.00005H9.00001V14H11V2.00005H13V4.97424e-05H5.15001ZM3.00001 4.00005C3.00001 3.46962 3.21072 2.96091 3.5858 2.58584C3.96087 2.21076 4.46958 2.00005 5.00001 2.00005V6.00005C4.46958 6.00005 3.96087 5.78934 3.5858 5.41426C3.21072 5.03919 3.00001 4.53048 3.00001 4.00005Z" fill="black"/>
</svg>
