<svg width="16" height="15" viewBox="0 0 16 15" fill="none"
	xmlns="http://www.w3.org/2000/svg">
	<path d="M6.31785 0L7.25602 1.3226C6.05825 2.16565 5.01302 3.20679 4.16528 4.40125C3.53372 5.30533 3.18624 6.37725 3.16727 7.47991V7.81724C3.40787 7.78542 3.62809 7.75742 3.82794 7.73324C4.01544 7.70972 4.20417 7.6974 4.39313 7.69633C4.78483 7.68486 5.17472 7.75371 5.53879 7.89864C5.90287 8.04357 6.23341 8.26151 6.51006 8.53903C6.78596 8.81184 7.00307 9.13827 7.148 9.49819C7.29293 9.8581 7.36262 10.2439 7.35276 10.6318C7.37486 11.0793 7.30755 11.5267 7.15477 11.9478C7.00199 12.369 6.76681 12.7555 6.46296 13.0848C6.15481 13.3923 5.78614 13.6324 5.38032 13.79C4.97449 13.9475 4.54036 14.019 4.10544 14C3.58296 14.0112 3.06492 13.9019 2.59143 13.6807C2.11794 13.4596 1.70171 13.1324 1.37497 12.7245C0.635154 11.7989 0.254926 10.6369 0.304395 9.453C0.301599 7.63414 0.828398 5.85381 1.82048 4.32933C2.99373 2.58203 4.52716 1.10589 6.31785 0ZM14.7103 0L15.6472 1.3226C14.4494 2.16565 13.4042 3.20679 12.5564 4.40125C11.9249 5.30533 11.5774 6.37725 11.5584 7.47991V7.81724C11.7825 7.78542 11.9951 7.75742 12.1962 7.73324C12.3917 7.70914 12.5885 7.69682 12.7856 7.69633C13.1747 7.68098 13.5628 7.74686 13.9251 7.88976C14.2873 8.03266 14.6159 8.24946 14.8898 8.52633C15.1578 8.8057 15.3673 9.13593 15.5057 9.49755C15.6441 9.85916 15.7086 10.2448 15.6955 10.6318C15.741 11.5315 15.43 12.4129 14.8299 13.0848C14.5275 13.3933 14.1633 13.6343 13.7612 13.792C13.359 13.9497 12.9281 14.0206 12.4966 14C11.9709 14.0093 11.45 13.8994 10.9729 13.6785C10.4957 13.4576 10.0749 13.1314 9.74197 12.7245C8.9881 11.8052 8.59846 10.6409 8.64718 9.453C8.65326 7.65265 9.18411 5.89312 10.1747 4.3898C11.3641 2.62645 12.909 1.1312 14.7103 0Z" fill="black"/>
</svg>
