<svg width="20" height="14" viewBox="0 0 20 14" fill="none"
	xmlns="http://www.w3.org/2000/svg">
	<path d="M2.00084 5.5C1.20084 5.5 0.500839 6.2 0.500839 7C0.500839 7.8 1.20084 8.5 2.00084 8.5C2.80084 8.5 3.50084 7.8 3.50084 7C3.50084 6.2 2.80084 5.5 2.00084 5.5ZM2.00084 0.5C1.20084 0.5 0.500839 1.2 0.500839 2C0.500839 2.8 1.20084 3.5 2.00084 3.5C2.80084 3.5 3.50084 2.8 3.50084 2C3.50084 1.2 2.80084 0.5 2.00084 0.5ZM2.00084 10.5C1.20084 10.5 0.500839 11.2 0.500839 12C0.500839 12.8 1.20084 13.5 2.00084 13.5C2.80084 13.5 3.50084 12.8 3.50084 12C3.50084 11.2 2.80084 10.5 2.00084 10.5ZM5.50084 1V3H19.5008V1H5.50084ZM5.50084 13H19.5008V11H5.50084V13ZM5.50084 8H19.5008V6H5.50084V8Z" fill="black"/>
</svg>
